<svg enable-background="new 0 0 48 50" height="50" viewBox="0 0 48 50" width="48" xmlns="http://www.w3.org/2000/svg"><path d="m0 0h48v50h-48z" fill="none" opacity="0"/><path d="m15.667 11.875c0 4.832 3.92 8.75 8.75 8.75 4.834 0 8.751-3.918 8.751-8.75s-3.917-8.75-8.751-8.75c-4.83 0-8.75 3.918-8.75 8.75m20.42 11.667h-.007-1.608l-9.073 18.423 3.393-16.965-4.375-4.375-4.375 4.375 3.393 16.965-9.073-18.423h-1.608-.007c-5.83 0-7.914 3.919-7.914 8.75v14.583h39.167v-14.583c0-4.831-2.083-8.75-7.913-8.75" fill="#2a84f5"/></svg>