<?xml version="1.0" encoding="utf-8"?>
<!-- Generator: Adobe Illustrator 14.0.0, SVG Export Plug-In . SVG Version: 6.00 Build 43363)  -->
<!DOCTYPE svg PUBLIC "-//W3C//DTD SVG 1.1//EN" "http://www.w3.org/Graphics/SVG/1.1/DTD/svg11.dtd">
<svg version="1.1" id="图层_1" xmlns="http://www.w3.org/2000/svg" xmlns:xlink="http://www.w3.org/1999/xlink" x="0px" y="0px"
	 width="48px" height="50px" viewBox="0 0 48 50" enable-background="new 0 0 48 50" xml:space="preserve">
<rect fill="#F2A313" fill-opacity="0" width="48" height="50"/>
<path fill="#F2A313" d="M41.135,15.208c1.354,0,2.448-1.095,2.448-2.448V7.865h-4.896V5.417H6.864c-1.346,0-2.448,1.103-2.448,2.448
	v34.27c0,1.346,1.103,2.449,2.448,2.449h31.823v-9.793h2.447c1.354,0,2.448-1.094,2.448-2.447v-4.896h-4.896V25h2.447
	c1.354,0,2.448-1.094,2.448-2.448v-4.896h-4.896v-2.448H41.135z M14.208,42.135H11.76V7.865h2.448V42.135z"/>
<path fill="#FFFFFF" d="M23.225,20.007c0,1.836,1.492,3.329,3.329,3.329c1.838,0,3.328-1.492,3.328-3.329
	c0-1.837-1.49-3.328-3.328-3.328C24.717,16.679,23.225,18.17,23.225,20.007 M30.993,24.445h-0.004h-0.611l-3.451,7.009L28.217,25
	l-1.663-1.664L24.888,25l1.291,6.454l-3.451-7.009h-0.612h-0.004c-2.216,0-3.009,1.49-3.009,3.328v5.547h14.898v-5.547
	C34.002,25.936,33.211,24.445,30.993,24.445"/>
</svg>
